<svg width="24" height="24" viewBox="0 0 24 24" fill="none" xmlns="http://www.w3.org/2000/svg">
<path d="M20 3H4C2.9 3 2 3.9 2 5V17C2 18.1 2.9 19 4 19H8V20C8 20 8 20.02 8 20.03C8 20.57 8.46 21.01 9 21H15C15 21 15.02 21 15.04 21C15.58 20.99 16.01 20.54 16 20V19H20C21.1 19 22 18.1 22 17V5C22 3.9 21.1 3 20 3ZM20 17H4V5H20V17Z" fill="white"/>
<path d="M8.64 9.44C8.79 9.44 8.9 9.56 8.9 9.7V13.6C8.9 13.75 9.02 13.86 9.16 13.86H9.78C9.93 13.86 10.04 13.74 10.04 13.6V9.7C10.04 9.55 10.16 9.44 10.3 9.44H11.23C11.38 9.44 11.49 9.32 11.49 9.18V8.76C11.49 8.61 11.37 8.5 11.23 8.5H7.7C7.55 8.5 7.44 8.62 7.44 8.76V9.18C7.44 9.33 7.56 9.44 7.7 9.44H8.64Z" fill="white"/>
<path d="M13.67 13.87H14.54C14.65 13.87 14.75 13.8 14.79 13.69L16.44 8.84C16.44 8.84 16.45 8.78 16.45 8.75C16.45 8.6 16.33 8.49 16.18 8.49H15.59C15.48 8.49 15.37 8.56 15.34 8.67L14.38 11.69C14.36 11.75 14.33 11.85 14.29 11.99C14.25 12.14 14.21 12.29 14.18 12.46C14.14 12.62 14.12 12.76 14.1 12.87C14.08 12.73 14.05 12.59 14.02 12.46C13.98 12.3 13.94 12.14 13.9 11.99C13.86 11.84 13.83 11.74 13.82 11.69L12.87 8.67C12.84 8.56 12.73 8.49 12.62 8.49H12.03C12.03 8.49 11.97 8.49 11.95 8.5C11.81 8.55 11.74 8.7 11.79 8.83L13.43 13.68C13.47 13.79 13.57 13.86 13.68 13.86L13.67 13.87Z" fill="white"/>
</svg>
