<svg width="24" height="24" viewBox="0 0 24 24" fill="none" xmlns="http://www.w3.org/2000/svg">
<path d="M21.21 8.11C20.7 6.92 19.97 5.85 19.06 4.93C18.15 4.02 17.07 3.29 15.88 2.78C14.66 2.26 13.34 2 12 2C10.67 2 9.35 2.26 8.12 2.79C6.93 3.3 5.85 4.03 4.93 4.94C4.02 5.85 3.29 6.93 2.78 8.12C2.26 9.34 2 10.66 2 12C2 13.33 2.26 14.65 2.79 15.88C3.3 17.07 4.03 18.15 4.94 19.07C5.85 19.98 6.94 20.71 8.13 21.22C9.35 21.75 10.67 22.02 12.01 22.01C13.35 22.01 14.67 21.75 15.9 21.22C17.09 20.71 18.16 19.98 19.08 19.07C19.99 18.16 20.72 17.07 21.23 15.88C21.76 14.66 22.03 13.34 22.02 12C22.02 10.66 21.76 9.34 21.23 8.11H21.21ZM17.08 5.82C17.8 6.44 18.42 7.17 18.89 8H15.94C15.79 7.38 15.6 6.76 15.38 6.16C15.16 5.57 14.89 5 14.59 4.45C15.5 4.74 16.35 5.21 17.08 5.83V5.82ZM10.87 5.92C11.19 5.26 11.57 4.64 11.99 4.04C12.42 4.63 12.79 5.26 13.11 5.92C13.43 6.59 13.69 7.28 13.89 8H10.09C10.28 7.29 10.54 6.59 10.87 5.92ZM4.25 14C4.17 13.67 4.1 13.34 4.06 13.01C4.02 12.67 4 12.34 4 12C4 11.66 4.02 11.32 4.06 10.99C4.1 10.66 4.17 10.33 4.25 10H7.65C7.6 10.33 7.56 10.67 7.54 10.99C7.52 11.31 7.5 11.65 7.5 12C7.5 12.35 7.5 12.68 7.54 13.01C7.57 13.34 7.6 13.66 7.65 14H4.25ZM6.91 18.18C6.19 17.56 5.57 16.83 5.1 16H8.05C8.2 16.62 8.39 17.24 8.61 17.83C8.83 18.42 9.09 18.99 9.4 19.54C8.49 19.25 7.64 18.79 6.91 18.17V18.18ZM8.61 6.16C8.38 6.76 8.19 7.37 8.05 8H5.1C5.57 7.18 6.19 6.44 6.91 5.83C7.64 5.21 8.49 4.74 9.4 4.45C9.1 5 8.84 5.57 8.61 6.16ZM13.12 18.07C12.8 18.73 12.42 19.35 12 19.95C11.57 19.36 11.2 18.73 10.88 18.07C10.56 17.4 10.3 16.71 10.1 15.99H13.9C13.71 16.7 13.45 17.4 13.12 18.07ZM14.46 13.01C14.43 13.34 14.4 13.66 14.35 14H9.65C9.6 13.67 9.57 13.33 9.54 13.01C9.51 12.69 9.5 12.35 9.5 12C9.5 11.65 9.52 11.32 9.54 10.99C9.56 10.66 9.6 10.34 9.65 10H14.35C14.4 10.33 14.44 10.67 14.46 10.99C14.48 11.31 14.5 11.65 14.5 12C14.5 12.35 14.49 12.68 14.46 13.01ZM17.08 18.17C16.35 18.79 15.51 19.26 14.59 19.55C14.89 19 15.16 18.42 15.38 17.83C15.61 17.23 15.79 16.62 15.94 16H18.89C18.41 16.82 17.8 17.56 17.08 18.18V18.17ZM19.93 13.01C19.89 13.34 19.82 13.67 19.74 14H16.34C16.39 13.67 16.43 13.33 16.45 13.01C16.47 12.69 16.49 12.35 16.49 12C16.49 11.65 16.47 11.32 16.45 10.99C16.43 10.66 16.39 10.34 16.34 10H19.74C19.82 10.33 19.89 10.66 19.93 10.99C19.97 11.33 19.99 11.66 19.99 12C19.99 12.34 19.97 12.68 19.93 13.01Z" fill="white"/>
</svg>
