<svg width="21" height="21" viewBox="0 0 21 21" fill="none" xmlns="http://www.w3.org/2000/svg">
<path d="M19.21 6.11C18.7 4.92 17.97 3.85 17.06 2.93C16.15 2.02 15.07 1.29 13.88 0.78C12.66 0.26 11.34 0 10 0C8.67 0 7.35 0.26 6.12 0.79C4.93 1.3 3.85 2.03 2.93 2.94C2.02 3.85 1.29 4.93 0.78 6.12C0.26 7.34 0 8.66 0 10C0 11.33 0.26 12.65 0.79 13.88C1.3 15.07 2.03 16.15 2.94 17.07C3.85 17.98 4.94 18.71 6.13 19.22C7.35 19.75 8.67 20.02 10.01 20.01C11.35 20.01 12.67 19.75 13.9 19.22C15.09 18.71 16.16 17.98 17.08 17.07C17.99 16.16 18.72 15.07 19.23 13.88C19.76 12.66 20.03 11.34 20.02 10C20.02 8.66 19.76 7.34 19.23 6.11H19.21ZM15.08 3.82C15.8 4.44 16.42 5.17 16.89 6H13.94C13.79 5.38 13.6 4.76 13.38 4.16C13.16 3.57 12.89 3 12.59 2.45C13.5 2.74 14.35 3.21 15.08 3.83V3.82ZM8.87 3.92C9.19 3.26 9.57 2.64 9.99 2.04C10.42 2.63 10.79 3.26 11.11 3.92C11.43 4.59 11.69 5.28 11.89 6H8.09C8.28 5.29 8.54 4.59 8.87 3.92ZM2.25 12C2.17 11.67 2.1 11.34 2.06 11.01C2.02 10.67 2 10.34 2 10C2 9.66 2.02 9.32 2.06 8.99C2.1 8.66 2.17 8.33 2.25 8H5.65C5.6 8.33 5.56 8.67 5.54 8.99C5.52 9.31 5.5 9.65 5.5 10C5.5 10.35 5.5 10.68 5.54 11.01C5.57 11.34 5.6 11.66 5.65 12H2.25ZM4.91 16.18C4.19 15.56 3.57 14.83 3.1 14H6.05C6.2 14.62 6.39 15.24 6.61 15.83C6.83 16.42 7.09 16.99 7.4 17.54C6.49 17.25 5.64 16.79 4.91 16.17V16.18ZM6.61 4.16C6.38 4.76 6.19 5.37 6.05 6H3.1C3.57 5.18 4.19 4.44 4.91 3.83C5.64 3.21 6.49 2.74 7.4 2.45C7.1 3 6.84 3.57 6.61 4.16ZM11.12 16.07C10.8 16.73 10.42 17.35 10 17.95C9.57 17.36 9.2 16.73 8.88 16.07C8.56 15.4 8.3 14.71 8.1 13.99H11.9C11.71 14.7 11.45 15.4 11.12 16.07ZM12.46 11.01C12.43 11.34 12.4 11.66 12.35 12H7.65C7.6 11.67 7.57 11.33 7.54 11.01C7.51 10.69 7.5 10.35 7.5 10C7.5 9.65 7.52 9.32 7.54 8.99C7.56 8.66 7.6 8.34 7.65 8H12.35C12.4 8.33 12.44 8.67 12.46 8.99C12.48 9.31 12.5 9.65 12.5 10C12.5 10.35 12.49 10.68 12.46 11.01ZM15.08 16.17C14.35 16.79 13.51 17.26 12.59 17.55C12.89 17 13.16 16.42 13.38 15.83C13.61 15.23 13.79 14.62 13.94 14H16.89C16.41 14.82 15.8 15.56 15.08 16.18V16.17ZM17.93 11.01C17.89 11.34 17.82 11.67 17.74 12H14.34C14.39 11.67 14.43 11.33 14.45 11.01C14.47 10.69 14.49 10.35 14.49 10C14.49 9.65 14.47 9.32 14.45 8.99C14.43 8.66 14.39 8.34 14.34 8H17.74C17.82 8.33 17.89 8.66 17.93 8.99C17.97 9.33 17.99 9.66 17.99 10C17.99 10.34 17.97 10.68 17.93 11.01Z" fill="white"/>
</svg>
