<svg width="33" height="33" viewBox="0 0 33 33" fill="none" xmlns="http://www.w3.org/2000/svg">
<path d="M16.5 3.30078C23.793 3.30078 29.7 9.20778 29.7 16.5008C29.7 23.7938 23.793 29.7008 16.5 29.7008C9.20705 29.7008 3.30005 23.7938 3.30005 16.5008C3.30005 9.20778 9.20705 3.30078 16.5 3.30078ZM18.3645 18.7778L18.942 8.11878H14.058L14.6355 18.7778H18.3645ZM18.216 24.3218C18.612 23.9423 18.8265 23.4143 18.8265 22.7378C18.8265 22.0448 18.6285 21.5168 18.2325 21.1373C17.8365 20.7578 17.259 20.5598 16.4835 20.5598C15.708 20.5598 15.1305 20.7578 14.718 21.1373C14.3055 21.5168 14.1075 22.0448 14.1075 22.7378C14.1075 23.4143 14.322 23.9423 14.7345 24.3218C15.1635 24.7013 15.741 24.8828 16.4835 24.8828C17.226 24.8828 17.8035 24.7013 18.216 24.3218Z" fill="#1984EF"/>
</svg>
